<?xml version="1.0" encoding="UTF-8" standalone="no"?>
<!-- Created with Inkscape (http://www.inkscape.org/) -->

<svg
   width="2480"
   height="520"
   viewBox="0 0 656.16665 137.58333"
   version="1.1"
   id="svg8"
   inkscape:version="1.1.1 (3bf5ae0d25, 2021-09-20, custom)"
   sodipodi:docname="github_banner.svg"
   inkscape:export-filename="/home/scrumplex/Pictures/Scrumplex/assets/banners/github_banner.svg.png"
   inkscape:export-xdpi="299.99951"
   inkscape:export-ydpi="299.99951"
   xmlns:inkscape="http://www.inkscape.org/namespaces/inkscape"
   xmlns:sodipodi="http://sodipodi.sourceforge.net/DTD/sodipodi-0.dtd"
   xmlns="http://www.w3.org/2000/svg"
   xmlns:svg="http://www.w3.org/2000/svg"
   xmlns:rdf="http://www.w3.org/1999/02/22-rdf-syntax-ns#"
   xmlns:cc="http://creativecommons.org/ns#"
   xmlns:dc="http://purl.org/dc/elements/1.1/">
  <defs
     id="defs2">
    <rect
       x="157.14286"
       y="135.82589"
       width="678.32589"
       height="324.17411"
       id="rect6534" />
    <inkscape:perspective
       sodipodi:type="inkscape:persp3d"
       inkscape:vp_x="0 : 68.791665 : 1"
       inkscape:vp_y="0 : 1000 : 0"
       inkscape:vp_z="656.16665 : 68.791665 : 1"
       inkscape:persp3d-origin="328.08333 : 45.86111 : 1"
       id="perspective47" />
    <style
       id="style4">
            .logoScrumplexBG{
            fill:#d63333;
            }
            .logoScrumplexShadow{
            fill:#000000;
            opacity:0.4;
            }
            .logoScrumplexWing{
            fill:#fff;
            }
        </style>
    <rect
       x="157.14285"
       y="135.8259"
       width="678.32587"
       height="324.1741"
       id="rect6534-3" />
    <filter
       style="color-interpolation-filters:sRGB;"
       inkscape:label="Blur"
       id="filter29490"
       x="-0.058763031"
       y="-0.27406646"
       width="1.1175261"
       height="1.5481329">
      <feGaussianBlur
         stdDeviation="16 16"
         result="blur"
         id="feGaussianBlur29488" />
    </filter>
  </defs>
  <sodipodi:namedview
     id="base"
     pagecolor="#ffffff"
     bordercolor="#666666"
     borderopacity="1.0"
     inkscape:pageopacity="0.0"
     inkscape:pageshadow="2"
     inkscape:zoom="0.7"
     inkscape:cx="1248.5714"
     inkscape:cy="347.85714"
     inkscape:document-units="mm"
     inkscape:current-layer="layer1"
     showgrid="false"
     units="px"
     inkscape:snap-bbox="true"
     inkscape:snap-page="true"
     showguides="true"
     inkscape:guide-bbox="true"
     inkscape:pagecheckerboard="0"
     inkscape:window-width="2560"
     inkscape:window-height="1388"
     inkscape:window-x="0"
     inkscape:window-y="0"
     inkscape:window-maximized="1">
    <sodipodi:guide
       position="15.875,0"
       orientation="1,0"
       id="guide27"
       inkscape:locked="false"
       inkscape:label=""
       inkscape:color="rgb(0,0,255)" />
    <sodipodi:guide
       position="0,15.875"
       orientation="0,1"
       id="guide29"
       inkscape:locked="false"
       inkscape:label=""
       inkscape:color="rgb(0,0,255)" />
    <sodipodi:guide
       position="0,0"
       orientation="0,2480"
       id="guide31"
       inkscape:locked="false" />
    <sodipodi:guide
       position="656.16665,0"
       orientation="-520,0"
       id="guide33"
       inkscape:locked="false" />
    <sodipodi:guide
       position="656.16665,137.58333"
       orientation="0,-2480"
       id="guide35"
       inkscape:locked="false" />
    <sodipodi:guide
       position="0,137.58333"
       orientation="520,0"
       id="guide37"
       inkscape:locked="false" />
    <sodipodi:guide
       position="0,121.70833"
       orientation="0,1"
       id="guide39"
       inkscape:locked="false"
       inkscape:label=""
       inkscape:color="rgb(0,0,255)" />
  </sodipodi:namedview>
  <metadata
     id="metadata5">
    <rdf:RDF>
      <cc:Work
         rdf:about="">
        <dc:format>image/svg+xml</dc:format>
        <dc:type
           rdf:resource="http://purl.org/dc/dcmitype/StillImage" />
      </cc:Work>
    </rdf:RDF>
  </metadata>
  <g
     inkscape:label="Layer 1"
     inkscape:groupmode="layer"
     id="layer1"
     transform="translate(0,-159.41669)">
    <rect
       style="opacity:1;vector-effect:none;fill:#d63333;fill-opacity:1;fill-rule:nonzero;stroke:none;stroke-width:50;stroke-linecap:square;stroke-linejoin:miter;stroke-miterlimit:4;stroke-dasharray:none;stroke-dashoffset:0;stroke-opacity:1;paint-order:normal"
       id="rect10"
       height="137.58334"
       x="0"
       y="159.41669"
       width="656.16699"
       ry="33.866665" />
    <rect
       style="vector-effect:none;fill:#d63333;fill-opacity:1;fill-rule:nonzero;stroke:none;stroke-width:50;stroke-linecap:square;stroke-linejoin:miter;stroke-miterlimit:4;stroke-dasharray:none;stroke-dashoffset:0;stroke-opacity:1;paint-order:normal"
       id="rect10-5"
       height="137.58334"
       x="0"
       y="159.41669"
       width="656.16699"
       ry="33.866665" />
    <path
       id="path1011-2"
       style="fill:#000000;fill-opacity:0.05;stroke:none;stroke-width:8.0276;stroke-linecap:butt;stroke-linejoin:miter;stroke-miterlimit:4;stroke-dasharray:none;stroke-opacity:1"
       d="M 128 0 C 57.088005 1.1368684e-13 0 57.088013 0 128 L 0 392 C 2.6483529e-15 411.82287 4.5913049 430.48975 12.568359 447.20703 C 72.678246 386.30914 395.33594 70.228516 620.00195 70.228516 C 894.00806 70.228516 1091.8953 307.29716 1297.6074 520 L 2352.002 520 C 2422.9007 520 2479.9788 462.93271 2480 392.03906 L 2480 127.96094 C 2479.9949 110.89297 2476.6139 94.660504 2470.5977 79.798828 C 2423.6451 127.81131 2090.6444 460 1860.0039 460 C 1581.6301 460 1381.8436 215.23395 1172.5762 0 L 128 0 z M 1614.5977 0 C 1690.31 40.96775 1771.1378 66.005859 1860.0039 66.005859 C 1924.8793 66.005859 1998.1556 39.290696 2071.0273 0 L 1614.5977 0 z M 620.00195 422.96875 C 539.18744 422.96875 445.35406 464.32631 355.49219 520 L 917.47461 520 C 826.90578 460.90576 729.5445 422.96875 620.00195 422.96875 z "
       transform="matrix(0.26458333,0,0,0.26458333,0,159.41669)" />
    <path
       sodipodi:nodetypes="ccccccccccccc"
       inkscape:connector-curvature="0"
       id="path10"
       d="m 247.13001,180.26628 -43.12295,37.51244 2.27997,9.99164 -7.18716,5.43481 13.62811,13.62811 0.39481,1.09606 5.42085,5.42086 -1.38854,1.2392 -8.41499,21.56147 c 6.94979,6.9498 13.89958,13.89958 20.84937,20.84938 H 363.8645 l -83.22438,-83.22438 z"
       style="opacity:0.4;fill:#000000;stroke-width:0.105833" />
    <path
       style="fill:#ffffff;stroke-width:0.105833"
       inkscape:connector-curvature="0"
       class="logoScrumplexWing"
       d="m 221.01161,244.94907 6.30978,-15.25058 -8.41375,3.68088 -3.15489,-11.04371 22.96266,-20.50838 8.4148,-21.56142 -43.12284,37.51262 2.27965,9.99173 -7.18715,5.43454 8.93975,0.70061 5.08317,14.02398 z m 35.75896,-21.73605 -8.93974,-0.70167 -5.08317,-14.02292 -7.88882,2.97921 -6.30978,15.25058 8.41375,-3.68088 3.15489,11.04371 -22.96266,20.50838 -8.41481,21.56142 43.12285,-37.51262 -2.27965,-9.99173 z"
       id="path12" />
    <text
       xml:space="preserve"
       transform="matrix(0.26458333,0,0,0.26458333,238.43863,169.53424)"
       id="text6532-6"
       style="font-size:144px;line-height:1.25;font-family:sans-serif;letter-spacing:0px;word-spacing:0px;white-space:pre;shape-inside:url(#rect6534-3)"><tspan
         x="157.14258"
         y="263.23242"
         id="tspan37921"><tspan
           style="font-weight:500;font-family:'Josefin Sans';-inkscape-font-specification:'Josefin Sans Medium';fill:#ffffff"
           id="tspan37919">Scrumplex</tspan></tspan></text>
  </g>
</svg>
