<?xml version="1.0" encoding="UTF-8" standalone="no"?>
<!-- Created with Inkscape (http://www.inkscape.org/) -->

<svg
   width="147.11349mm"
   height="147.11351mm"
   viewBox="0 0 147.11349 147.11351"
   version="1.1"
   id="svg5"
   inkscape:version="1.1 (c4e8f9ed74, 2021-05-24)"
   sodipodi:docname="drawing.svg"
   inkscape:export-filename="/home/scrumplex/drawing.png"
   inkscape:export-xdpi="393.216"
   inkscape:export-ydpi="393.216"
   xmlns:inkscape="http://www.inkscape.org/namespaces/inkscape"
   xmlns:sodipodi="http://sodipodi.sourceforge.net/DTD/sodipodi-0.dtd"
   xmlns:xlink="http://www.w3.org/1999/xlink"
   xmlns="http://www.w3.org/2000/svg"
   xmlns:svg="http://www.w3.org/2000/svg">
  <sodipodi:namedview
     id="namedview7"
     pagecolor="#ffffff"
     bordercolor="#666666"
     borderopacity="1.0"
     inkscape:pageshadow="2"
     inkscape:pageopacity="0.0"
     inkscape:pagecheckerboard="true"
     inkscape:document-units="mm"
     showgrid="false"
     inkscape:snap-bbox="false"
     inkscape:object-paths="true"
     inkscape:snap-intersection-paths="true"
     inkscape:snap-bbox-midpoints="true"
     showguides="true"
     inkscape:guide-bbox="true"
     inkscape:zoom="0.70710678"
     inkscape:cx="195.16147"
     inkscape:cy="289.20667"
     inkscape:window-width="2556"
     inkscape:window-height="1388"
     inkscape:window-x="0"
     inkscape:window-y="0"
     inkscape:window-maximized="1"
     inkscape:current-layer="layer1"
     fit-margin-top="0"
     fit-margin-left="0"
     fit-margin-right="0"
     fit-margin-bottom="0"
     inkscape:snap-page="true"
     inkscape:snap-others="false"
     inkscape:snap-nodes="false" />
  <defs
     id="defs2" />
  <g
     inkscape:label="Layer 1"
     inkscape:groupmode="layer"
     id="layer1">
    <g
       id="g97843"
       transform="translate(-28.451134,-29.129944)">
      <ellipse
         style="opacity:1;fill:#ffffff;fill-opacity:1;stroke:#000000;stroke-width:4;stroke-linecap:square;stroke-linejoin:round;stroke-miterlimit:4;stroke-dasharray:none;stroke-opacity:1"
         id="path97380"
         cx="102.00788"
         cy="102.6867"
         rx="71.556999"
         ry="71.556755" />
      <text
         xml:space="preserve"
         style="font-size:12.7px;line-height:0;font-family:sans-serif;letter-spacing:0.981604px;word-spacing:0px;stroke-width:0.264583"
         id="text2806"
         transform="matrix(0.82514512,0.65625254,-0.65625254,0.82514512,85.339537,-48.617503)"><textPath
           xlink:href="#path64426"
           id="textPath79629"
           style="font-style:normal;font-variant:normal;font-weight:500;font-stretch:normal;font-size:12.7px;font-family:'IBM Plex Sans';-inkscape-font-specification:'IBM Plex Sans Medium';stroke-width:0.264583">Sefa Stamp of Approval   Sefa Stamp of Approval   </textPath></text>
      <path
         id="path64426-8"
         style="fill:#d63333;fill-opacity:1;stroke:#801f1f;stroke-width:2;stroke-linecap:round;stroke-linejoin:round;stroke-dashoffset:40;stroke-opacity:1;paint-order:markers stroke fill"
         d="M 151.63052,102.93222 A 49.881485,49.881489 0 0 1 101.74903,152.81371 49.881485,49.881489 0 0 1 51.867546,102.93222 49.881485,49.881489 0 0 1 101.74903,53.050732 49.881485,49.881489 0 0 1 151.63052,102.93222 Z" />
      <path
         id="path90137"
         style="opacity:0.4;fill:#000000;fill-opacity:1;stroke:none;stroke-width:0.999999px;stroke-linecap:butt;stroke-linejoin:miter;stroke-opacity:1"
         d="m 456.38867,214.82617 -115.73828,79.21289 11.28125,12.85938 c -21.60585,14.82605 -75.76996,51.99599 -75.63086,51.96679 l 268.01367,-56.25195 -87.68164,-87.68164 a 188.52845,188.52846 0 0 0 -0.24414,-0.10547 z m 113.4961,188.24414 -277.83789,58.31446 c 2.74344,18.01597 6.58007,43.19531 6.58007,43.19531 l 38.57032,66.80469 a 188.52845,188.52846 0 0 0 47.36523,6.17968 188.52845,188.52846 0 0 0 187.89648,-173.19336 z"
         transform="scale(0.26458333)" />
      <path
         id="path64426-8-2"
         style="fill:#fefcfc;fill-opacity:1;stroke:none;stroke-width:7.55906;stroke-linecap:round;stroke-linejoin:round;stroke-miterlimit:4;stroke-dasharray:none;stroke-dashoffset:40;stroke-opacity:1;paint-order:markers stroke fill"
         d="m 390.38281,200.60547 -145.41211,126.49414 8.34766,36.58984 65.17383,-13.67968 130.7832,-116.80469 7.19531,-18.43555 a 188.52845,188.52846 0 0 0 -66.08789,-14.16406 z m 82.62891,71.80859 -46.4375,17.53711 -16.9336,40.92774 78.58594,-16.49414 z m 45.4375,141.45117 -66.17383,13.89063 -129.91211,116.02734 -7.89062,20.21875 a 188.52845,188.52846 0 0 0 65.61718,13.39453 L 526.66797,449.88867 Z m -156.7207,32.89454 -78.11719,16.39648 15.01562,41.42383 46.4375,-17.54297 z"
         transform="scale(0.26458333)" />
      <ellipse
         style="fill:none;fill-opacity:1;stroke:none;stroke-width:1.07199;stroke-linecap:round;stroke-linejoin:round;stroke-miterlimit:4;stroke-dasharray:none;stroke-dashoffset:40;stroke-opacity:1;paint-order:markers stroke fill"
         id="path64426"
         cx="101.74903"
         cy="102.93222"
         rx="53.472431"
         ry="53.472435" />
      <g
         id="g116831"
         transform="rotate(-21.408966,101.7739,102.93222)">
        <g
           id="g125013"
           transform="rotate(9.5554963,101.7739,102.93222)">
          <text
             xml:space="preserve"
             style="font-size:19.05px;line-height:1.25;font-family:sans-serif;letter-spacing:0px;word-spacing:0px;stroke-width:0.264583"
             id="text104154"
             y="109.59799"
             x="102.27715"><tspan
               sodipodi:role="line"
               id="tspan104152"
               style="font-style:normal;font-variant:normal;font-weight:normal;font-stretch:normal;font-size:19.05px;font-family:Manrope;-inkscape-font-specification:Manrope;text-align:center;text-anchor:middle;stroke-width:0.264583"
               x="102.27715"
               y="109.59799">APPROVED</tspan></text>
          <path
             style="fill:none;stroke:#801f1f;stroke-width:2;stroke-linecap:square;stroke-linejoin:round;stroke-miterlimit:4;stroke-dasharray:none;stroke-opacity:1"
             d="m 54.408712,116.65997 94.686898,-0.0234"
             id="path116221"
             sodipodi:nodetypes="cc" />
          <path
             style="fill:none;stroke:#801f1f;stroke-width:2;stroke-linecap:square;stroke-linejoin:round;stroke-miterlimit:4;stroke-dasharray:none;stroke-opacity:1"
             d="m 54.475908,89.219244 94.764142,-0.0037"
             id="path116221-6"
             sodipodi:nodetypes="cc" />
        </g>
      </g>
    </g>
  </g>
</svg>
